<?xml version="1.0" encoding="UTF-8"?>
<!DOCTYPE svg PUBLIC "-//W3C//DTD SVG 1.1//EN" "http://www.w3.org/Graphics/SVG/1.1/DTD/svg11.dtd">
<svg xmlns="http://www.w3.org/2000/svg" version="1.1" width="392px" height="90px" style="shape-rendering:geometricPrecision; text-rendering:geometricPrecision; image-rendering:optimizeQuality; fill-rule:evenodd; clip-rule:evenodd" xmlns:xlink="http://www.w3.org/1999/xlink">
<g><path style="opacity:0" fill="#ffffff" d="M -0.5,-0.5 C 130.167,-0.5 260.833,-0.5 391.5,-0.5C 391.5,29.5 391.5,59.5 391.5,89.5C 260.833,89.5 130.167,89.5 -0.5,89.5C -0.5,59.5 -0.5,29.5 -0.5,-0.5 Z"/></g>
<g><path style="opacity:1" fill="#d68c84" d="M 23.5,15.5 C 29.1667,15.5 34.8333,15.5 40.5,15.5C 41.1667,16.1667 41.8333,16.8333 42.5,17.5C 35.5,17.5 28.5,17.5 21.5,17.5C 22.1667,16.8333 22.8333,16.1667 23.5,15.5 Z"/></g>
<g><path style="opacity:1" fill="#c07cb8" d="M 40.5,15.5 C 46.5,15.5 52.5,15.5 58.5,15.5C 60.8333,16.1667 63.1667,16.8333 65.5,17.5C 57.8333,17.5 50.1667,17.5 42.5,17.5C 41.8333,16.8333 41.1667,16.1667 40.5,15.5 Z"/></g>
<g><path style="opacity:1" fill="#e38c4f" d="M 23.5,15.5 C 22.8333,16.1667 22.1667,16.8333 21.5,17.5C 16.8333,17.5 14.5,19.8333 14.5,24.5C 13.8333,34.5 13.1667,44.5 12.5,54.5C 12.3335,43.1618 12.5001,31.8284 13,20.5C 15.7811,17.1951 19.2811,15.5285 23.5,15.5 Z"/></g>
<g><path style="opacity:1" fill="#f3e7f0" d="M 21.5,17.5 C 28.5,17.5 35.5,17.5 42.5,17.5C 50.1667,17.5 57.8333,17.5 65.5,17.5C 68.2626,17.7438 70.4293,19.0771 72,21.5C 72.4998,32.1615 72.6665,42.8281 72.5,53.5C 72.2562,56.2626 70.9229,58.4293 68.5,60C 60.9885,60.1712 53.6552,60.6712 46.5,61.5C 42.369,65.1296 38.369,68.963 34.5,73C 33.552,73.4828 32.552,73.6495 31.5,73.5C 31.5,69.5 31.5,65.5 31.5,61.5C 28.3752,60.5206 25.0419,60.1872 21.5,60.5C 18.7374,60.2562 16.5707,58.9229 15,56.5C 14.5002,45.8385 14.3335,35.1719 14.5,24.5C 14.5,19.8333 16.8333,17.5 21.5,17.5 Z"/></g>
<g><path style="opacity:1" fill="#b57be4" d="M 58.5,15.5 C 64.7013,14.285 69.8679,15.9517 74,20.5C 74.4828,21.448 74.6495,22.448 74.5,23.5C 73.8333,33.5 73.1667,43.5 72.5,53.5C 72.6665,42.8281 72.4998,32.1615 72,21.5C 70.4293,19.0771 68.2626,17.7438 65.5,17.5C 63.1667,16.8333 60.8333,16.1667 58.5,15.5 Z"/></g>
<g><path style="opacity:1" fill="#f1e3ec" d="M 43.5,25.5 C 47.5156,26.1951 49.0156,28.5284 48,32.5C 45.1705,35.1013 42.3371,35.1013 39.5,32.5C 39.149,29.1884 40.4823,26.855 43.5,25.5 Z"/></g>
<g><path style="opacity:1" fill="#ffffff" d="M 135.5,62.5 C 134.666,63.7479 133.333,64.4146 131.5,64.5C 129.667,64.4146 128.334,63.7479 127.5,62.5C 128.495,51.6794 128.828,40.6794 128.5,29.5C 127.325,29.719 126.325,29.3857 125.5,28.5C 127.611,27.0512 129.944,26.0512 132.5,25.5C 133.086,25.7093 133.586,26.0426 134,26.5C 134.169,38.6737 134.669,50.6737 135.5,62.5 Z"/></g>
<g><path style="opacity:1" fill="#ffffff" d="M 342.5,62.5 C 341.848,63.7251 340.681,64.3917 339,64.5C 337.319,64.3917 336.152,63.7251 335.5,62.5C 336.659,52.008 336.825,41.3414 336,30.5C 334.795,29.9288 333.628,29.2621 332.5,28.5C 335.043,27.1965 337.71,26.1965 340.5,25.5C 341.167,37.9934 341.833,50.3268 342.5,62.5 Z"/></g>
<g><path style="opacity:1" fill="#ffffff" d="M 357.5,26.5 C 357.172,38.6783 357.505,50.6783 358.5,62.5C 357.848,63.7251 356.681,64.3917 355,64.5C 353.319,64.3917 352.152,63.7251 351.5,62.5C 352.495,51.6794 352.828,40.6794 352.5,29.5C 350.821,29.7148 349.821,29.0481 349.5,27.5C 351.679,26.9408 353.846,26.2741 356,25.5C 356.765,25.5699 357.265,25.9033 357.5,26.5 Z"/></g>
<g><path style="opacity:1" fill="#d1868a" d="M 43.5,24.5 C 43.5,24.8333 43.5,25.1667 43.5,25.5C 40.4823,26.855 39.149,29.1884 39.5,32.5C 39.5,32.8333 39.5,33.1667 39.5,33.5C 36.1554,28.6649 37.4887,25.6649 43.5,24.5 Z"/></g>
<g><path style="opacity:1" fill="#ffffff" d="M 285.5,28.5 C 280.918,29.0112 277.584,29.6779 275.5,30.5C 274.791,31.404 273.791,31.7373 272.5,31.5C 272.5,30.5 272.5,29.5 272.5,28.5C 276.833,28.5 281.167,28.5 285.5,28.5 Z"/></g>
<g><path style="opacity:1" fill="#ffffff" d="M 115.5,44.5 C 117.048,44.8212 117.715,45.8212 117.5,47.5C 116.5,47.5 115.5,47.5 114.5,47.5C 111.833,47.5 109.167,47.5 106.5,47.5C 106.5,52.5 106.5,57.5 106.5,62.5C 105.848,63.7251 104.681,64.3917 103,64.5C 101.319,64.3917 100.152,63.7251 99.5,62.5C 100.659,52.3416 100.825,42.0083 100,31.5C 99.3076,30.9747 98.8076,30.3081 98.5,29.5C 106.138,28.5025 113.804,28.1692 121.5,28.5C 121.66,30.1992 121.494,31.8659 121,33.5C 120.626,32.5838 120.126,31.7504 119.5,31C 115.179,30.501 110.846,30.3343 106.5,30.5C 106.5,35.1667 106.5,39.8333 106.5,44.5C 109.5,44.5 112.5,44.5 115.5,44.5 Z"/></g>
<g><path style="opacity:1" fill="#ffffff" d="M 285.5,28.5 C 291.5,28.5 297.5,28.5 303.5,28.5C 303.719,29.675 303.386,30.675 302.5,31.5C 298.635,30.1939 294.802,30.1939 291,31.5C 290.175,42.0083 290.341,52.3416 291.5,62.5C 290.848,63.7251 289.681,64.3917 288,64.5C 286.319,64.3917 285.152,63.7251 284.5,62.5C 285.659,52.3416 285.825,42.0083 285,31.5C 281.943,30.5495 278.777,30.2161 275.5,30.5C 277.584,29.6779 280.918,29.0112 285.5,28.5 Z"/></g>
<g><path style="opacity:1" fill="#ffffff" d="M 186.5,62.5 C 186.557,63.609 186.89,64.609 187.5,65.5C 184.305,66.0393 181.805,65.0393 180,62.5C 179.667,55.1667 179.333,47.8333 179,40.5C 177.989,39.6634 176.822,39.33 175.5,39.5C 175.5,38.5 175.5,37.5 175.5,36.5C 176.552,36.6495 177.552,36.4828 178.5,36C 180.521,33.6593 182.188,31.1593 183.5,28.5C 184.086,28.7093 184.586,29.0426 185,29.5C 185.333,32.1667 185.667,34.8333 186,37.5C 187.067,38.1905 188.234,38.6905 189.5,39C 187.866,39.4935 186.199,39.6602 184.5,39.5C 184.334,46.8409 184.5,54.1742 185,61.5C 185.383,62.056 185.883,62.3893 186.5,62.5 Z"/></g>
<g><path style="opacity:1" fill="#ffffff" d="M 207.5,62.5 C 207.557,63.609 207.89,64.609 208.5,65.5C 205.305,66.0393 202.805,65.0393 201,62.5C 200.667,55.1667 200.333,47.8333 200,40.5C 198.989,39.6634 197.822,39.33 196.5,39.5C 196.5,38.5 196.5,37.5 196.5,36.5C 197.552,36.6495 198.552,36.4828 199.5,36C 201.521,33.6593 203.188,31.1593 204.5,28.5C 205.484,31.4281 205.817,34.4281 205.5,37.5C 212.167,38.1667 212.167,38.8333 205.5,39.5C 205.334,46.8409 205.5,54.1742 206,61.5C 206.383,62.056 206.883,62.3893 207.5,62.5 Z"/></g>
<g><path style="opacity:1" fill="#bc74b6" d="M 43.5,25.5 C 43.5,25.1667 43.5,24.8333 43.5,24.5C 50.6521,25.513 52.3188,29.1796 48.5,35.5C 48.1667,35.5 47.8333,35.5 47.5,35.5C 45.1667,36.8333 42.8333,36.8333 40.5,35.5C 40.1667,35.5 39.8333,35.5 39.5,35.5C 39.5,34.8333 39.5,34.1667 39.5,33.5C 39.5,33.1667 39.5,32.8333 39.5,32.5C 42.3371,35.1013 45.1705,35.1013 48,32.5C 49.0156,28.5284 47.5156,26.1951 43.5,25.5 Z"/></g>
<g><path style="opacity:1" fill="#b2a5af" d="M 349.5,27.5 C 349.821,29.0481 350.821,29.7148 352.5,29.5C 352.828,40.6794 352.495,51.6794 351.5,62.5C 351.5,51.8333 351.5,41.1667 351.5,30.5C 350.5,30.5 349.5,30.5 348.5,30.5C 348.263,29.209 348.596,28.209 349.5,27.5 Z"/></g>
<g><path style="opacity:1" fill="#776874" d="M 357.5,26.5 C 357.849,33.7259 358.849,40.7259 360.5,47.5C 360.082,48.2216 359.416,48.7216 358.5,49C 359.056,49.3826 359.389,49.8826 359.5,50.5C 358.517,54.2984 358.183,58.2984 358.5,62.5C 357.505,50.6783 357.172,38.6783 357.5,26.5 Z"/></g>
<g><path style="opacity:1" fill="#ffffff" d="M 226.5,37.5 C 229.167,36.1667 231.833,36.1667 234.5,37.5C 234.5,38.1667 234.5,38.8333 234.5,39.5C 232.565,38.8505 230.565,38.5172 228.5,38.5C 228.158,37.6618 227.492,37.3284 226.5,37.5 Z"/></g>
<g><path style="opacity:1" fill="#ffffff" d="M 258.5,62.5 C 257.848,63.7251 256.681,64.3917 255,64.5C 253.319,64.3917 252.152,63.7251 251.5,62.5C 252.491,55.6866 252.825,48.6866 252.5,41.5C 251.5,41.5 250.5,41.5 249.5,41.5C 249.36,39.8762 250.027,38.7096 251.5,38C 255.689,37.6645 259.856,37.1645 264,36.5C 266.894,36.6951 269.061,38.0284 270.5,40.5C 269.833,40.8333 269.167,41.1667 268.5,41.5C 264.939,38.9817 261.439,38.9817 258,41.5C 257.179,48.6791 257.345,55.6791 258.5,62.5 Z"/></g>
<g><path style="opacity:1" fill="#ffffff" d="M 152.5,62.5 C 152.5,63.8333 151.833,64.5 150.5,64.5C 147.852,64.2615 146.018,62.9282 145,60.5C 144.5,53.5079 144.334,46.5079 144.5,39.5C 143.325,39.719 142.325,39.3857 141.5,38.5C 144.086,37.52 146.753,37.1866 149.5,37.5C 149.334,44.5079 149.5,51.5079 150,58.5C 150.608,60.0664 151.442,61.3998 152.5,62.5 Z"/></g>
<g><path style="opacity:1" fill="#ffffff" d="M 163.5,64.5 C 162.167,63.8333 160.833,63.1667 159.5,62.5C 160.458,62.0472 161.292,61.3805 162,60.5C 162.167,57 162.333,53.5 162.5,50C 162.456,46.0688 161.789,42.4022 160.5,39C 162.937,37.6253 165.603,37.1253 168.5,37.5C 168.212,45.7096 168.545,53.8762 169.5,62C 168.056,64.0345 166.056,64.8678 163.5,64.5 Z"/></g>
<g><path style="opacity:1" fill="#ffffff" d="M 226.5,37.5 C 227.492,37.3284 228.158,37.6618 228.5,38.5C 227.542,39.9616 226.376,41.2949 225,42.5C 224.505,44.4727 224.338,46.4727 224.5,48.5C 228.833,48.5 233.167,48.5 237.5,48.5C 237.868,44.9557 236.868,41.9557 234.5,39.5C 234.5,38.8333 234.5,38.1667 234.5,37.5C 240.409,39.3171 243.409,43.3171 243.5,49.5C 237.167,49.5 230.833,49.5 224.5,49.5C 223.869,59.0389 228.203,63.2056 237.5,62C 239.212,60.2491 241.212,59.5825 243.5,60C 238.099,65.4571 231.765,66.7904 224.5,64C 215.295,55.2265 215.295,46.5599 224.5,38C 225.094,37.5357 225.761,37.369 226.5,37.5 Z"/></g>
<g><path style="opacity:1" fill="#ffffff" d="M 321.5,63.5 C 321.167,62.8333 320.833,62.1667 320.5,61.5C 320.5,58.1667 320.5,54.8333 320.5,51.5C 320.806,48.6146 320.473,45.9479 319.5,43.5C 319.489,41.9826 318.823,40.8159 317.5,40C 314.833,39.3333 312.167,39.3333 309.5,40C 308.657,41.7866 308.49,43.6199 309,45.5C 307.667,46.8333 306.333,46.8333 305,45.5C 303.909,40.9024 305.743,38.0691 310.5,37C 316.533,35.8757 321.366,37.709 325,42.5C 324.978,50.3772 325.812,58.0439 327.5,65.5C 325.297,65.3964 323.297,64.7298 321.5,63.5 Z"/></g>
<g><path style="opacity:0" fill="#ffffff" d="M 228.5,38.5 C 230.565,38.5172 232.565,38.8505 234.5,39.5C 236.868,41.9557 237.868,44.9557 237.5,48.5C 233.167,48.5 228.833,48.5 224.5,48.5C 224.338,46.4727 224.505,44.4727 225,42.5C 226.376,41.2949 227.542,39.9616 228.5,38.5 Z"/></g>
<g><path style="opacity:1" fill="#d58b87" d="M 39.5,35.5 C 39.8333,35.5 40.1667,35.5 40.5,35.5C 40.7709,37.3797 40.1042,38.713 38.5,39.5C 36.901,39.2322 35.5676,39.5655 34.5,40.5C 30.0281,42.5151 29.3614,45.5151 32.5,49.5C 31.8333,49.5 31.5,49.8333 31.5,50.5C 28.2392,47.6796 27.7392,44.3463 30,40.5C 32.2658,39.0437 34.7658,38.2104 37.5,38C 38.3805,37.2917 39.0472,36.4584 39.5,35.5 Z"/></g>
<g><path style="opacity:1" fill="#f1e2ec" d="M 34.5,40.5 C 39.466,41.7568 40.466,44.4235 37.5,48.5C 35.9291,49.3094 34.2624,49.6427 32.5,49.5C 29.3614,45.5151 30.0281,42.5151 34.5,40.5 Z"/></g>
<g><path style="opacity:1" fill="#a89aa5" d="M 114.5,47.5 C 115.5,47.5 116.5,47.5 117.5,47.5C 117.715,45.8212 117.048,44.8212 115.5,44.5C 115.541,42.2547 116.375,41.5881 118,42.5C 118.814,44.9018 118.647,47.2351 117.5,49.5C 116.261,49.0576 115.261,48.3909 114.5,47.5 Z"/></g>
<g><path style="opacity:1" fill="#b277e4" d="M 42.5,44.5 C 43.9778,44.238 45.3112,44.5713 46.5,45.5C 45.8333,45.8333 45.1667,46.1667 44.5,46.5C 43.2867,46.2528 42.62,45.5862 42.5,44.5 Z"/></g>
<g><path style="opacity:1" fill="#ffffff" d="M 375.5,62.5 C 373.721,64.3435 371.388,65.0102 368.5,64.5C 368.737,63.209 368.404,62.209 367.5,61.5C 364.801,57.8098 362.135,54.1431 359.5,50.5C 359.389,49.8826 359.056,49.3826 358.5,49C 359.416,48.7216 360.082,48.2216 360.5,47.5C 362.498,45.4002 364.665,43.4002 367,41.5C 367.309,40.2341 367.809,39.0674 368.5,38C 370.902,37.1859 373.235,37.3526 375.5,38.5C 371.234,40.7658 367.567,43.7658 364.5,47.5C 367.837,52.8228 371.503,57.8228 375.5,62.5 Z"/></g>
<g><path style="opacity:1" fill="#a667f2" d="M 47.5,35.5 C 47.8333,35.5 48.1667,35.5 48.5,35.5C 49.5045,36.6828 50.3378,38.0161 51,39.5C 54.5723,37.9489 57.239,38.9489 59,42.5C 60.2113,47.4169 58.378,50.4169 53.5,51.5C 47.9087,50.3493 46.0754,47.016 48,41.5C 48.5,41 49,40.5 49.5,40C 47.9632,38.8904 47.2965,37.3904 47.5,35.5 Z"/></g>
<g><path style="opacity:1" fill="#f2e6f1" d="M 51.5,40.5 C 57.6426,41.0262 58.9759,43.8595 55.5,49C 50.5036,49.6643 48.6703,47.4977 50,42.5C 50.7172,41.9558 51.2172,41.2891 51.5,40.5 Z"/></g>
<g><path style="opacity:1" fill="#bc72b0" d="M 34.5,40.5 C 35.5676,39.5655 36.901,39.2322 38.5,39.5C 42.8854,47.7509 40.5521,51.4175 31.5,50.5C 31.5,49.8333 31.8333,49.5 32.5,49.5C 34.2624,49.6427 35.9291,49.3094 37.5,48.5C 40.466,44.4235 39.466,41.7568 34.5,40.5 Z"/></g>
<g><path style="opacity:1" fill="#ffffff" d="M 319.5,43.5 C 320.473,45.9479 320.806,48.6146 320.5,51.5C 317.246,51.2069 314.246,51.8736 311.5,53.5C 310.791,52.596 309.791,52.2627 308.5,52.5C 311.845,50.783 315.511,50.1164 319.5,50.5C 319.5,48.1667 319.5,45.8333 319.5,43.5 Z"/></g>
<g><path style="opacity:1" fill="#ffffff" d="M 308.5,52.5 C 309.791,52.2627 310.791,52.596 311.5,53.5C 309.286,54.3915 308.286,56.0582 308.5,58.5C 308.34,60.3545 309.007,61.6879 310.5,62.5C 310.179,64.0481 309.179,64.7148 307.5,64.5C 304.296,63.6219 302.63,61.4552 302.5,58C 303.039,54.6294 305.039,52.7961 308.5,52.5 Z"/></g>
<g><path style="opacity:0" fill="#ffffff" d="M 320.5,51.5 C 320.5,54.8333 320.5,58.1667 320.5,61.5C 317.272,62.4137 313.939,62.7471 310.5,62.5C 309.007,61.6879 308.34,60.3545 308.5,58.5C 308.286,56.0582 309.286,54.3915 311.5,53.5C 314.246,51.8736 317.246,51.2069 320.5,51.5 Z"/></g>
<g><path style="opacity:1" fill="#db9990" d="M 14.5,24.5 C 14.3335,35.1719 14.5002,45.8385 15,56.5C 16.5707,58.9229 18.7374,60.2562 21.5,60.5C 21.5,61.1667 21.5,61.8333 21.5,62.5C 16.5991,61.8949 13.5991,59.2282 12.5,54.5C 13.1667,44.5 13.8333,34.5 14.5,24.5 Z"/></g>
<g><path style="opacity:1" fill="#c37ca9" d="M 21.5,60.5 C 25.0419,60.1872 28.3752,60.5206 31.5,61.5C 30.5151,65.6344 30.1818,69.9677 30.5,74.5C 29.5166,70.7016 29.1832,66.7016 29.5,62.5C 26.8333,62.5 24.1667,62.5 21.5,62.5C 21.5,61.8333 21.5,61.1667 21.5,60.5 Z"/></g>
<g><path style="opacity:1" fill="#9d5af4" d="M 74.5,23.5 C 74.6665,34.505 74.4998,45.505 74,56.5C 72.5202,59.6626 70.0202,61.496 66.5,62C 60.1754,62.4995 53.8421,62.6662 47.5,62.5C 46.8333,62.5 46.5,62.1667 46.5,61.5C 53.6552,60.6712 60.9885,60.1712 68.5,60C 70.9229,58.4293 72.2562,56.2626 72.5,53.5C 73.1667,43.5 73.8333,33.5 74.5,23.5 Z"/></g>
<g><path style="opacity:1" fill="#ffffff" d="M 152.5,62.5 C 154.833,62.5 157.167,62.5 159.5,62.5C 160.833,63.1667 162.167,63.8333 163.5,64.5C 159.011,65.5715 154.678,65.5715 150.5,64.5C 151.833,64.5 152.5,63.8333 152.5,62.5 Z"/></g>
<g><path style="opacity:1" fill="#ffffff" d="M 187.5,65.5 C 186.89,64.609 186.557,63.609 186.5,62.5C 189.278,62.9783 191.278,61.9783 192.5,59.5C 193.255,63.1089 191.588,65.1089 187.5,65.5 Z"/></g>
<g><path style="opacity:1" fill="#ffffff" d="M 208.5,65.5 C 207.89,64.609 207.557,63.609 207.5,62.5C 210.238,63.0352 212.072,62.0352 213,59.5C 214.033,63.3086 212.533,65.3086 208.5,65.5 Z"/></g>
<g><path style="opacity:1" fill="#ffffff" d="M 320.5,61.5 C 320.833,62.1667 321.167,62.8333 321.5,63.5C 318.741,64.8852 315.741,65.5519 312.5,65.5C 310.631,65.4932 308.964,65.1599 307.5,64.5C 309.179,64.7148 310.179,64.0481 310.5,62.5C 313.939,62.7471 317.272,62.4137 320.5,61.5 Z"/></g>
<g><path style="opacity:1" fill="#b673cb" d="M 31.5,61.5 C 31.5,65.5 31.5,69.5 31.5,73.5C 32.552,73.6495 33.552,73.4828 34.5,73C 38.369,68.963 42.369,65.1296 46.5,61.5C 46.5,62.1667 46.8333,62.5 47.5,62.5C 43.7036,66.7978 39.7036,70.9644 35.5,75C 33.735,75.6397 32.0683,75.4731 30.5,74.5C 30.1818,69.9677 30.5151,65.6344 31.5,61.5 Z"/></g>
<g><path style="opacity:1" fill="#ffffff" d="M 99.5,62.5 C 100.152,63.7251 101.319,64.3917 103,64.5C 104.681,64.3917 105.848,63.7251 106.5,62.5C 107.995,62.4148 108.995,63.0815 109.5,64.5C 105.5,65.8333 101.5,65.8333 97.5,64.5C 97.8555,63.4777 98.5222,62.811 99.5,62.5 Z"/></g>
<g><path style="opacity:1" fill="#ffffff" d="M 127.5,62.5 C 128.334,63.7479 129.667,64.4146 131.5,64.5C 133.333,64.4146 134.666,63.7479 135.5,62.5C 136.478,62.811 137.145,63.4777 137.5,64.5C 133.5,65.8333 129.5,65.8333 125.5,64.5C 125.855,63.4777 126.522,62.811 127.5,62.5 Z"/></g>
<g><path style="opacity:1" fill="#ffffff" d="M 251.5,62.5 C 252.152,63.7251 253.319,64.3917 255,64.5C 256.681,64.3917 257.848,63.7251 258.5,62.5C 260.048,62.8212 260.715,63.8212 260.5,65.5C 256.833,65.5 253.167,65.5 249.5,65.5C 249.285,63.8212 249.952,62.8212 251.5,62.5 Z"/></g>
<g><path style="opacity:1" fill="#ffffff" d="M 284.5,62.5 C 285.152,63.7251 286.319,64.3917 288,64.5C 289.681,64.3917 290.848,63.7251 291.5,62.5C 293.048,62.8212 293.715,63.8212 293.5,65.5C 289.833,65.5 286.167,65.5 282.5,65.5C 282.285,63.8212 282.952,62.8212 284.5,62.5 Z"/></g>
<g><path style="opacity:1" fill="#ffffff" d="M 335.5,62.5 C 336.152,63.7251 337.319,64.3917 339,64.5C 340.681,64.3917 341.848,63.7251 342.5,62.5C 343.478,62.811 344.145,63.4777 344.5,64.5C 340.893,65.4892 337.226,65.8226 333.5,65.5C 333.285,63.8212 333.952,62.8212 335.5,62.5 Z"/></g>
<g><path style="opacity:1" fill="#ffffff" d="M 351.5,62.5 C 352.152,63.7251 353.319,64.3917 355,64.5C 356.681,64.3917 357.848,63.7251 358.5,62.5C 359.643,62.9081 360.643,63.5748 361.5,64.5C 357.167,65.8333 352.833,65.8333 348.5,64.5C 349.005,63.0815 350.005,62.4148 351.5,62.5 Z"/></g>
<g><path style="opacity:1" fill="#ffffff" d="M 367.5,61.5 C 368.404,62.209 368.737,63.209 368.5,64.5C 371.388,65.0102 373.721,64.3435 375.5,62.5C 377.048,62.8212 377.715,63.8212 377.5,65.5C 374.167,65.5 370.833,65.5 367.5,65.5C 367.5,64.1667 367.5,62.8333 367.5,61.5 Z"/></g>
</svg>
