<?xml version="1.0" encoding="UTF-8"?>
<!DOCTYPE svg PUBLIC "-//W3C//DTD SVG 1.1//EN" "http://www.w3.org/Graphics/SVG/1.1/DTD/svg11.dtd">
<svg xmlns="http://www.w3.org/2000/svg" version="1.1" width="444px" height="420px" style="shape-rendering:geometricPrecision; text-rendering:geometricPrecision; image-rendering:optimizeQuality; fill-rule:evenodd; clip-rule:evenodd" xmlns:xlink="http://www.w3.org/1999/xlink">
<g><path style="opacity:0" fill="#ffffff" d="M -0.5,-0.5 C 147.5,-0.5 295.5,-0.5 443.5,-0.5C 443.5,139.5 443.5,279.5 443.5,419.5C 295.5,419.5 147.5,419.5 -0.5,419.5C -0.5,279.5 -0.5,139.5 -0.5,-0.5 Z"/></g>
<g><path style="opacity:1" fill="#c77380" d="M 199.5,97.5 C 209.167,97.5 218.833,97.5 228.5,97.5C 228.443,98.609 228.11,99.609 227.5,100.5C 217.5,100.5 207.5,100.5 197.5,100.5C 198.167,99.5 198.833,98.5 199.5,97.5 Z"/></g>
<g><path style="opacity:1" fill="#ba699f" d="M 228.5,97.5 C 234.167,97.5 239.833,97.5 245.5,97.5C 244.833,98.5 244.167,99.5 243.5,100.5C 238.167,100.5 232.833,100.5 227.5,100.5C 228.11,99.609 228.443,98.609 228.5,97.5 Z"/></g>
<g><path style="opacity:1" fill="#ac62c9" d="M 245.5,97.5 C 254.173,97.3336 262.84,97.5002 271.5,98C 274.442,98.1439 276.776,99.3106 278.5,101.5C 276.952,101.821 276.285,102.821 276.5,104.5C 274.692,103.093 272.692,101.926 270.5,101C 261.506,100.5 252.506,100.334 243.5,100.5C 244.167,99.5 244.833,98.5 245.5,97.5 Z"/></g>
<g><path style="opacity:1" fill="#f3e7f0" d="M 197.5,100.5 C 207.5,100.5 217.5,100.5 227.5,100.5C 232.833,100.5 238.167,100.5 243.5,100.5C 252.506,100.334 261.506,100.5 270.5,101C 272.692,101.926 274.692,103.093 276.5,104.5C 279.231,106.071 281.065,108.405 282,111.5C 282.5,132.497 282.667,153.497 282.5,174.5C 281.167,183.167 276.167,188.167 267.5,189.5C 254.829,189.333 242.162,189.5 229.5,190C 226.296,193.036 223.296,196.203 220.5,199.5C 214.702,204.797 209.035,210.297 203.5,216C 201.735,216.64 200.068,216.473 198.5,215.5C 199.135,206.766 198.468,198.433 196.5,190.5C 189.345,189.671 182.011,189.171 174.5,189C 171.861,188.347 169.527,187.18 167.5,185.5C 165.254,183.351 163.754,180.684 163,177.5C 162.5,156.836 162.333,136.169 162.5,115.5C 162.877,109.283 165.877,104.783 171.5,102C 180.084,100.59 188.75,100.09 197.5,100.5 Z"/></g>
<g><path style="opacity:1" fill="#e38943" d="M 199.5,97.5 C 198.833,98.5 198.167,99.5 197.5,100.5C 188.75,100.09 180.084,100.59 171.5,102C 165.877,104.783 162.877,109.283 162.5,115.5C 161.507,124.318 161.173,133.318 161.5,142.5C 160.046,143.52 159.713,144.687 160.5,146C 159.906,146.464 159.239,146.631 158.5,146.5C 158.333,135.162 158.5,123.828 159,112.5C 160.977,105.851 165.143,101.018 171.5,98C 180.827,97.5002 190.161,97.3335 199.5,97.5 Z"/></g>
<g><path style="opacity:1" fill="#f2e6ef" d="M 221.5,118.5 C 229.551,117.884 233.218,121.551 232.5,129.5C 230.457,135.694 226.124,138.027 219.5,136.5C 215.175,133.176 213.675,128.843 215,123.5C 216.777,121.21 218.944,119.543 221.5,118.5 Z"/></g>
<g><path style="opacity:1" fill="#be74a9" d="M 224.5,114.5 C 230.64,115.31 234.64,118.643 236.5,124.5C 235.603,123.402 234.77,123.402 234,124.5C 233.802,126.382 233.302,128.048 232.5,129.5C 233.218,121.551 229.551,117.884 221.5,118.5C 223.229,117.764 224.229,116.43 224.5,114.5 Z"/></g>
<g><path style="opacity:1" fill="#9751f7" d="M 285.5,111.5 C 286.655,133.427 286.821,155.427 286,177.5C 283.678,184.988 278.845,189.988 271.5,192.5C 258.496,192.667 245.496,192.5 232.5,192C 232.167,191.667 231.833,191.333 231.5,191C 243.674,190.831 255.674,190.331 267.5,189.5C 276.167,188.167 281.167,183.167 282.5,174.5C 283.332,154.337 283.832,134.004 284,113.5C 284.278,112.584 284.778,111.918 285.5,111.5 Z"/></g>
<g><path style="opacity:1" fill="#c97783" d="M 224.5,114.5 C 224.229,116.43 223.229,117.764 221.5,118.5C 218.944,119.543 216.777,121.21 215,123.5C 213.675,128.843 215.175,133.176 219.5,136.5C 218.596,137.209 218.263,138.209 218.5,139.5C 218.167,139.5 217.833,139.5 217.5,139.5C 217.5,138.833 217.167,138.5 216.5,138.5C 209.562,130.707 209.895,123.207 217.5,116C 219.677,114.798 222.011,114.298 224.5,114.5 Z"/></g>
<g><path style="opacity:1" fill="#a96df1" d="M 278.5,101.5 C 282.324,103.823 284.657,107.156 285.5,111.5C 284.778,111.918 284.278,112.584 284,113.5C 283.832,134.004 283.332,154.337 282.5,174.5C 282.667,153.497 282.5,132.497 282,111.5C 281.065,108.405 279.231,106.071 276.5,104.5C 276.285,102.821 276.952,101.821 278.5,101.5 Z"/></g>
<g><path style="opacity:1" fill="#b368bb" d="M 236.5,124.5 C 237.215,129.9 235.548,134.4 231.5,138C 232.416,138.278 233.082,138.778 233.5,139.5C 232.094,139.973 231.427,140.973 231.5,142.5C 230.71,141.391 230.21,140.058 230,138.5C 226.321,140.689 222.488,141.023 218.5,139.5C 218.263,138.209 218.596,137.209 219.5,136.5C 226.124,138.027 230.457,135.694 232.5,129.5C 233.302,128.048 233.802,126.382 234,124.5C 234.77,123.402 235.603,123.402 236.5,124.5 Z"/></g>
<g><path style="opacity:1" fill="#dd8554" d="M 216.5,138.5 C 217.167,138.5 217.5,138.833 217.5,139.5C 216.858,143.133 214.858,145.466 211.5,146.5C 211.343,145.127 211.51,143.793 212,142.5C 212.876,140.365 214.376,139.031 216.5,138.5 Z"/></g>
<g><path style="opacity:1" fill="#a25de5" d="M 233.5,139.5 C 235.18,141.527 236.347,143.861 237,146.5C 240.11,144.408 243.277,144.075 246.5,145.5C 244.801,145.34 243.134,145.506 241.5,146C 240.748,146.671 240.414,147.504 240.5,148.5C 234.419,150.994 232.419,155.327 234.5,161.5C 233.094,161.973 232.427,162.973 232.5,164.5C 229.138,157.992 230.138,152.159 235.5,147C 233.356,146.208 232.023,144.708 231.5,142.5C 231.427,140.973 232.094,139.973 233.5,139.5 Z"/></g>
<g><path style="opacity:1" fill="#ce7b79" d="M 208.5,145.5 C 207.89,146.391 207.557,147.391 207.5,148.5C 199.065,148.101 195.232,152.101 196,160.5C 196.997,162.323 198.164,163.99 199.5,165.5C 198.89,166.391 198.557,167.391 198.5,168.5C 192.853,164.628 191.02,159.295 193,152.5C 196.484,146.171 201.65,143.837 208.5,145.5 Z"/></g>
<g><path style="opacity:1" fill="#f2e6ee" d="M 207.5,148.5 C 212.342,150.512 214.342,154.179 213.5,159.5C 211.038,166.253 206.372,168.253 199.5,165.5C 198.164,163.99 196.997,162.323 196,160.5C 195.232,152.101 199.065,148.101 207.5,148.5 Z"/></g>
<g><path style="opacity:1" fill="#f1e4f1" d="M 240.5,148.5 C 248.454,147.955 252.287,151.621 252,159.5C 249.575,165.795 245.075,167.962 238.5,166C 236.959,164.629 235.625,163.129 234.5,161.5C 232.419,155.327 234.419,150.994 240.5,148.5 Z"/></g>
<g><path style="opacity:1" fill="#c075a3" d="M 208.5,145.5 C 209.609,145.557 210.609,145.89 211.5,146.5C 213.86,147.865 215.527,149.865 216.5,152.5C 214.98,154.588 213.98,156.922 213.5,159.5C 214.342,154.179 212.342,150.512 207.5,148.5C 207.557,147.391 207.89,146.391 208.5,145.5 Z"/></g>
<g><path style="opacity:1" fill="#ad68d8" d="M 220.5,156.5 C 222.857,156.337 225.19,156.503 227.5,157C 228.833,158 228.833,159 227.5,160C 224.854,160.497 222.187,160.664 219.5,160.5C 219.433,159.041 219.766,157.708 220.5,156.5 Z"/></g>
<g><path style="opacity:1" fill="#d87f58" d="M 161.5,142.5 C 161.667,153.172 161.5,163.839 161,174.5C 160.667,175.167 160.333,175.833 160,176.5C 159.722,175.584 159.222,174.918 158.5,174.5C 158.5,165.167 158.5,155.833 158.5,146.5C 159.239,146.631 159.906,146.464 160.5,146C 159.713,144.687 160.046,143.52 161.5,142.5 Z"/></g>
<g><path style="opacity:1" fill="#b86baf" d="M 216.5,152.5 C 219.03,163.097 214.864,169.097 204,170.5C 201.779,170.607 199.946,169.94 198.5,168.5C 198.557,167.391 198.89,166.391 199.5,165.5C 206.372,168.253 211.038,166.253 213.5,159.5C 213.98,156.922 214.98,154.588 216.5,152.5 Z"/></g>
<g><path style="opacity:1" fill="#9a56f8" d="M 246.5,145.5 C 255.713,149.71 257.879,156.377 253,165.5C 245.635,172.455 238.802,172.122 232.5,164.5C 232.427,162.973 233.094,161.973 234.5,161.5C 235.625,163.129 236.959,164.629 238.5,166C 245.075,167.962 249.575,165.795 252,159.5C 252.287,151.621 248.454,147.955 240.5,148.5C 240.414,147.504 240.748,146.671 241.5,146C 243.134,145.506 244.801,145.34 246.5,145.5 Z"/></g>
<g><path style="opacity:1" fill="#d98c74" d="M 162.5,115.5 C 162.333,136.169 162.5,156.836 163,177.5C 163.754,180.684 165.254,183.351 167.5,185.5C 167.414,186.496 167.748,187.329 168.5,188C 167.906,188.464 167.239,188.631 166.5,188.5C 161.722,185.052 159.056,180.385 158.5,174.5C 159.222,174.918 159.722,175.584 160,176.5C 160.333,175.833 160.667,175.167 161,174.5C 161.5,163.839 161.667,153.172 161.5,142.5C 161.173,133.318 161.507,124.318 162.5,115.5 Z"/></g>
<g><path style="opacity:1" fill="#c87c97" d="M 167.5,185.5 C 169.527,187.18 171.861,188.347 174.5,189C 182.011,189.171 189.345,189.671 196.5,190.5C 193.428,190.183 190.428,190.516 187.5,191.5C 189.969,192.168 192.302,192.835 194.5,193.5C 186.429,193.863 178.429,193.363 170.5,192C 168.907,191.051 167.574,189.885 166.5,188.5C 167.239,188.631 167.906,188.464 168.5,188C 167.748,187.329 167.414,186.496 167.5,185.5 Z"/></g>
<g><path style="opacity:1" fill="#b96dac" d="M 196.5,190.5 C 198.468,198.433 199.135,206.766 198.5,215.5C 197.167,215.5 196.5,216.167 196.5,217.5C 195.732,216.737 195.232,215.737 195,214.5C 194.5,207.508 194.334,200.508 194.5,193.5C 192.302,192.835 189.969,192.168 187.5,191.5C 190.428,190.516 193.428,190.183 196.5,190.5 Z"/></g>
<g><path style="opacity:1" fill="#ad6de3" d="M 267.5,189.5 C 255.674,190.331 243.674,190.831 231.5,191C 231.833,191.333 232.167,191.667 232.5,192C 245.496,192.5 258.496,192.667 271.5,192.5C 258.006,193.331 244.339,193.831 230.5,194C 227.631,197.038 224.631,199.871 221.5,202.5C 221.737,201.209 221.404,200.209 220.5,199.5C 223.296,196.203 226.296,193.036 229.5,190C 242.162,189.5 254.829,189.333 267.5,189.5 Z"/></g>
<g><path style="opacity:1" fill="#b068c8" d="M 220.5,199.5 C 221.404,200.209 221.737,201.209 221.5,202.5C 216.37,208.131 211.036,213.631 205.5,219C 201.834,221.492 198.834,220.992 196.5,217.5C 196.5,216.167 197.167,215.5 198.5,215.5C 200.068,216.473 201.735,216.64 203.5,216C 209.035,210.297 214.702,204.797 220.5,199.5 Z"/></g>
<g><path style="opacity:1" fill="#281625" d="M 69.5,308.5 C 66.572,309.82 63.2386,310.486 59.5,310.5C 55.7614,310.486 52.428,309.82 49.5,308.5C 51.4672,308.739 53.3005,308.406 55,307.5C 55.6667,290.833 55.6667,274.167 55,257.5C 53.1746,256.897 51.3413,256.23 49.5,255.5C 53.8822,253.039 58.5489,251.373 63.5,250.5C 63.3334,269.503 63.5001,288.503 64,307.5C 65.6995,308.406 67.5328,308.739 69.5,308.5 Z"/></g>
<g><path style="opacity:1" fill="#2e1c2b" d="M 378.5,250.5 C 379.833,250.5 381.167,250.5 382.5,250.5C 382.333,269.503 382.5,288.503 383,307.5C 384.825,308.103 386.659,308.77 388.5,309.5C 381.5,310.833 374.5,310.833 367.5,309.5C 369.341,308.77 371.175,308.103 373,307.5C 373.5,290.503 373.667,273.503 373.5,256.5C 371.396,256.799 369.396,256.466 367.5,255.5C 371.293,253.979 374.96,252.312 378.5,250.5 Z"/></g>
<g><path style="opacity:1" fill="#2d1c2a" d="M 410.5,308.5 C 410.918,309.222 411.584,309.722 412.5,310C 405.842,310.5 399.175,310.666 392.5,310.5C 393.841,308.88 395.674,307.88 398,307.5C 398.5,290.503 398.667,273.503 398.5,256.5C 396.396,256.799 394.396,256.466 392.5,255.5C 397.194,252.99 402.194,251.323 407.5,250.5C 407.333,269.503 407.5,288.503 408,307.5C 408.671,308.252 409.504,308.586 410.5,308.5 Z"/></g>
<g><path style="opacity:1" fill="#5b4a58" d="M 44.5,255.5 C 31.6557,255.171 18.989,255.505 6.5,256.5C 5.95691,256.44 5.62358,256.107 5.5,255.5C 18.6606,254.175 31.6606,254.175 44.5,255.5 Z"/></g>
<g><path style="opacity:1" fill="#61505e" d="M 321.5,260.5 C 322.268,261.263 322.768,262.263 323,263.5C 323.497,260.854 323.664,258.187 323.5,255.5C 307.833,255.5 292.167,255.5 276.5,255.5C 276.194,258.385 276.527,261.052 277.5,263.5C 277.44,264.043 277.107,264.376 276.5,264.5C 275.513,261.232 275.18,257.898 275.5,254.5C 291.833,254.5 308.167,254.5 324.5,254.5C 324.5,257.833 324.5,261.167 324.5,264.5C 323.5,264.5 322.5,264.5 321.5,264.5C 321.5,263.167 321.5,261.833 321.5,260.5 Z"/></g>
<g><path style="opacity:1" fill="#2d1b2a" d="M 6.5,256.5 C 18.989,255.505 31.6557,255.171 44.5,255.5C 44.8134,258.247 44.48,260.914 43.5,263.5C 42.6781,261.861 42.0114,260.195 41.5,258.5C 34.6866,257.509 27.6866,257.175 20.5,257.5C 20.5,265.167 20.5,272.833 20.5,280.5C 25.3633,280.819 30.03,280.486 34.5,279.5C 35.9313,278.22 36.5979,276.553 36.5,274.5C 37.4872,279.305 37.8205,284.305 37.5,289.5C 36.6942,288.003 36.0276,286.336 35.5,284.5C 30.544,283.506 25.544,283.173 20.5,283.5C 20.3336,291.507 20.5003,299.507 21,307.5C 23.3258,307.88 25.1591,308.88 26.5,310.5C 19.825,310.666 13.1583,310.5 6.5,310C 7.05596,309.617 7.38929,309.117 7.5,308.5C 8.82207,308.67 9.98873,308.337 11,307.5C 11.8329,290.823 11.6663,274.157 10.5,257.5C 9.26381,256.754 7.93047,256.421 6.5,256.5 Z"/></g>
<g><path style="opacity:1" fill="#2b1928" d="M 141.5,254.5 C 141.5,259.5 141.5,264.5 141.5,269.5C 144.698,268.964 147.365,269.631 149.5,271.5C 146.833,271.5 144.167,271.5 141.5,271.5C 141.333,282.505 141.5,293.505 142,304.5C 143.395,308.306 145.895,309.306 149.5,307.5C 150.833,305.833 152.167,304.167 153.5,302.5C 154.402,305.56 153.402,308.06 150.5,310C 146.289,311.534 141.956,311.867 137.5,311C 135.274,309.773 133.774,307.939 133,305.5C 132.5,294.172 132.333,282.838 132.5,271.5C 130.167,271.5 127.833,271.5 125.5,271.5C 125.5,270.5 125.5,269.5 125.5,268.5C 133.455,267.212 137.455,262.546 137.5,254.5C 138.833,254.5 140.167,254.5 141.5,254.5 Z"/></g>
<g><path style="opacity:1" fill="#2b1928" d="M 181.5,271.5 C 178.833,271.5 176.167,271.5 173.5,271.5C 173.333,282.505 173.5,293.505 174,304.5C 175.816,308.663 178.649,309.497 182.5,307C 183.376,305.414 184.376,303.914 185.5,302.5C 185.833,303.167 186.167,303.833 186.5,304.5C 184.513,309.748 180.68,312.081 175,311.5C 170.191,312.034 166.857,310.034 165,305.5C 164.5,294.172 164.333,282.838 164.5,271.5C 162.167,271.5 159.833,271.5 157.5,271.5C 157.5,270.5 157.5,269.5 157.5,268.5C 164.048,267.619 168.048,263.952 169.5,257.5C 170.467,256.194 171.801,255.527 173.5,255.5C 173.5,260.167 173.5,264.833 173.5,269.5C 176.698,268.964 179.365,269.631 181.5,271.5 Z"/></g>
<g><path style="opacity:1" fill="#271524" d="M 321.5,260.5 C 321.672,259.508 321.338,258.842 320.5,258.5C 315.025,257.511 309.358,257.178 303.5,257.5C 303.17,274.342 303.503,291.008 304.5,307.5C 305.391,308.11 306.391,308.443 307.5,308.5C 307.918,309.222 308.584,309.722 309.5,310C 302.842,310.5 296.175,310.666 289.5,310.5C 290.841,308.88 292.674,307.88 295,307.5C 295.5,290.837 295.667,274.17 295.5,257.5C 290.156,257.334 284.823,257.501 279.5,258C 277.845,259.444 277.178,261.278 277.5,263.5C 276.527,261.052 276.194,258.385 276.5,255.5C 292.167,255.5 307.833,255.5 323.5,255.5C 323.664,258.187 323.497,260.854 323,263.5C 322.768,262.263 322.268,261.263 321.5,260.5 Z"/></g>
<g><path style="opacity:1" fill="#a496a1" d="M 41.5,258.5 C 34.8333,258.5 28.1667,258.5 21.5,258.5C 21.5,265.5 21.5,272.5 21.5,279.5C 25.8333,279.5 30.1667,279.5 34.5,279.5C 30.03,280.486 25.3633,280.819 20.5,280.5C 20.5,272.833 20.5,265.167 20.5,257.5C 27.6866,257.175 34.6866,257.509 41.5,258.5 Z"/></g>
<g><path style="opacity:1" fill="#5f4f5c" d="M 320.5,258.5 C 315.167,258.5 309.833,258.5 304.5,258.5C 304.5,274.833 304.5,291.167 304.5,307.5C 303.503,291.008 303.17,274.342 303.5,257.5C 309.358,257.178 315.025,257.511 320.5,258.5 Z"/></g>
<g><path style="opacity:1" fill="#7e6f7b" d="M 181.5,271.5 C 179.365,269.631 176.698,268.964 173.5,269.5C 173.5,264.833 173.5,260.167 173.5,255.5C 171.801,255.527 170.467,256.194 169.5,257.5C 169.5,256.5 169.5,255.5 169.5,254.5C 171.167,254.5 172.833,254.5 174.5,254.5C 174.5,259.167 174.5,263.833 174.5,268.5C 177.167,268.5 179.833,268.5 182.5,268.5C 182.737,269.791 182.404,270.791 181.5,271.5 Z"/></g>
<g><path style="opacity:1" fill="#756572" d="M 141.5,254.5 C 142.486,258.97 142.819,263.637 142.5,268.5C 145.167,268.5 147.833,268.5 150.5,268.5C 150.737,269.791 150.404,270.791 149.5,271.5C 147.365,269.631 144.698,268.964 141.5,269.5C 141.5,264.5 141.5,259.5 141.5,254.5 Z"/></g>
<g><path style="opacity:1" fill="#2e1c2b" d="M 231.5,283.5 C 231.5,284.833 231.5,286.167 231.5,287.5C 221.319,287.173 211.319,287.506 201.5,288.5C 201.836,296.848 205.503,303.181 212.5,307.5C 218.686,309.251 224.019,307.751 228.5,303C 229.635,302.251 230.635,302.417 231.5,303.5C 228.878,307.482 225.211,309.982 220.5,311C 206.289,314.484 197.122,309.317 193,295.5C 189.817,275.972 197.983,266.805 217.5,268C 225.534,270.198 230.201,275.364 231.5,283.5 Z"/></g>
<g><path style="opacity:1" fill="#301e2d" d="M 259.5,310.5 C 252.825,310.666 246.158,310.5 239.5,310C 240.056,309.617 240.389,309.117 240.5,308.5C 241.822,308.67 242.989,308.337 244,307.5C 244.5,296.505 244.667,285.505 244.5,274.5C 242.5,274.5 240.5,274.5 238.5,274.5C 238.5,273.5 238.5,272.5 238.5,271.5C 243.439,270.301 248.439,269.301 253.5,268.5C 253.351,269.552 253.517,270.552 254,271.5C 261.158,265.796 267.658,266.296 273.5,273C 273,274.833 271.833,276 270,276.5C 267.572,275.74 265.739,274.24 264.5,272C 260.495,270.902 256.995,271.735 254,274.5C 253.333,285.5 253.333,296.5 254,307.5C 256.326,307.88 258.159,308.88 259.5,310.5 Z"/></g>
<g><path style="opacity:1" fill="#2f1d2c" d="M 334.5,267.5 C 343.968,265.927 351.468,268.927 357,276.5C 357.333,286.167 357.667,295.833 358,305.5C 359.981,308.993 362.481,309.326 365.5,306.5C 366.594,307.868 366.26,309.035 364.5,310C 359.293,312.347 354.46,311.847 350,308.5C 341.595,312.415 333.262,312.415 325,308.5C 320.552,301.218 322.052,295.718 329.5,292C 335.463,290.207 341.463,288.541 347.5,287C 350.988,274.813 346.322,269.813 333.5,272C 329.699,273.449 329.533,275.283 333,277.5C 334.24,280.906 333.073,282.573 329.5,282.5C 324.338,281.302 323.171,278.302 326,273.5C 328.322,270.605 331.155,268.605 334.5,267.5 Z"/></g>
<g><path style="opacity:1" fill="#2d1b2a" d="M 73.5,268.5 C 78.1667,268.5 82.8333,268.5 87.5,268.5C 87.3335,279.172 87.5002,289.839 88,300.5C 89.8838,308.134 94.7172,310.634 102.5,308C 103.665,306.916 104.998,306.083 106.5,305.5C 107.499,294.186 107.832,282.853 107.5,271.5C 105.5,271.5 103.5,271.5 101.5,271.5C 101.5,270.5 101.5,269.5 101.5,268.5C 106.5,268.5 111.5,268.5 116.5,268.5C 116.5,280.833 116.5,293.167 116.5,305.5C 118.604,305.201 120.604,305.534 122.5,306.5C 122.291,307.086 121.957,307.586 121.5,308C 116.99,309.003 112.657,310.503 108.5,312.5C 107.833,311.167 107.167,309.833 106.5,308.5C 98.8835,312.228 91.2168,312.395 83.5,309C 81.683,307.2 80.5163,305.034 80,302.5C 79.6667,292.5 79.3333,282.5 79,272.5C 77.3005,271.594 75.4672,271.261 73.5,271.5C 73.5,270.5 73.5,269.5 73.5,268.5 Z"/></g>
<g><path style="opacity:1" fill="#2d1c2a" d="M 436.5,308.5 C 436.918,309.222 437.584,309.722 438.5,310C 432.509,310.499 426.509,310.666 420.5,310.5C 421.398,309.842 422.398,309.176 423.5,308.5C 418.5,301.167 413.5,293.833 408.5,286.5C 413.833,281.5 419.167,276.5 424.5,271.5C 423.167,270.833 421.833,270.167 420.5,269.5C 425.5,268.167 430.5,268.167 435.5,269.5C 432.93,270.223 430.597,271.39 428.5,273C 424.625,277.043 420.625,280.877 416.5,284.5C 422,292.167 427.5,299.833 433,307.5C 434.011,308.337 435.178,308.67 436.5,308.5 Z"/></g>
<g><path style="opacity:1" fill="#ffffff" d="M 208.5,270.5 C 218.09,270.09 222.757,274.757 222.5,284.5C 215.5,284.5 208.5,284.5 201.5,284.5C 202.215,279.07 204.548,274.403 208.5,270.5 Z"/></g>
<g><path style="opacity:1" fill="#6f5f6c" d="M 36.5,274.5 C 36.56,273.957 36.8933,273.624 37.5,273.5C 38.8147,278.986 38.8147,284.32 37.5,289.5C 37.8205,284.305 37.4872,279.305 36.5,274.5 Z"/></g>
<g><path style="opacity:1" fill="#bcafb9" d="M 231.5,283.5 C 232.451,284.919 232.784,286.585 232.5,288.5C 222.167,288.5 211.833,288.5 201.5,288.5C 211.319,287.506 221.319,287.173 231.5,287.5C 231.5,286.167 231.5,284.833 231.5,283.5 Z"/></g>
<g><path style="opacity:1" fill="#ffffff" d="M 345.5,289.5 C 346.833,289.5 348.167,289.5 349.5,289.5C 349.666,294.844 349.499,300.177 349,305.5C 346.29,307.792 343.123,308.792 339.5,308.5C 332.116,308.436 329.616,304.77 332,297.5C 332.465,296.069 333.299,294.903 334.5,294C 338.053,291.879 341.72,290.379 345.5,289.5 Z"/></g>
<g><path style="opacity:1" fill="#8c7e89" d="M 7.5,308.5 C 7.38929,309.117 7.05596,309.617 6.5,310C 13.1583,310.5 19.825,310.666 26.5,310.5C 19.6866,311.491 12.6866,311.825 5.5,311.5C 5.28519,309.821 5.95186,308.821 7.5,308.5 Z"/></g>
<g><path style="opacity:1" fill="#948691" d="M 49.5,308.5 C 52.428,309.82 55.7614,310.486 59.5,310.5C 63.2386,310.486 66.572,309.82 69.5,308.5C 70.404,309.209 70.7373,310.209 70.5,311.5C 63.1667,311.5 55.8333,311.5 48.5,311.5C 48.2627,310.209 48.596,309.209 49.5,308.5 Z"/></g>
<g><path style="opacity:1" fill="#8c7e89" d="M 240.5,308.5 C 240.389,309.117 240.056,309.617 239.5,310C 246.158,310.5 252.825,310.666 259.5,310.5C 252.687,311.491 245.687,311.825 238.5,311.5C 238.285,309.821 238.952,308.821 240.5,308.5 Z"/></g>
<g><path style="opacity:1" fill="#897a86" d="M 307.5,308.5 C 308.5,308.5 309.5,308.5 310.5,308.5C 310.5,309.5 310.5,310.5 310.5,311.5C 303.313,311.825 296.313,311.491 289.5,310.5C 296.175,310.666 302.842,310.5 309.5,310C 308.584,309.722 307.918,309.222 307.5,308.5 Z"/></g>
<g><path style="opacity:1" fill="#897b86" d="M 410.5,308.5 C 411.5,308.5 412.5,308.5 413.5,308.5C 413.5,309.5 413.5,310.5 413.5,311.5C 406.313,311.825 399.313,311.491 392.5,310.5C 399.175,310.666 405.842,310.5 412.5,310C 411.584,309.722 410.918,309.222 410.5,308.5 Z"/></g>
<g><path style="opacity:1" fill="#8e808b" d="M 436.5,308.5 C 437.5,308.5 438.5,308.5 439.5,308.5C 439.5,309.5 439.5,310.5 439.5,311.5C 432.978,311.823 426.645,311.49 420.5,310.5C 426.509,310.666 432.509,310.499 438.5,310C 437.584,309.722 436.918,309.222 436.5,308.5 Z"/></g>
</svg>
