<svg width="22" height="25" viewBox="0 0 22 25" fill="none" xmlns="http://www.w3.org/2000/svg">
<path d="M20.6841 19.3869C20.3211 20.2254 19.8915 20.9972 19.3938 21.7068C18.7153 22.6742 18.1597 23.3438 17.7316 23.7157C17.0679 24.326 16.3568 24.6386 15.5954 24.6564C15.0487 24.6564 14.3895 24.5008 13.6221 24.1853C12.8522 23.8712 12.1446 23.7156 11.4977 23.7156C10.8192 23.7156 10.0915 23.8712 9.31318 24.1853C8.53364 24.5008 7.90566 24.6653 7.42552 24.6815C6.69533 24.7127 5.9675 24.3912 5.24101 23.7156C4.7773 23.3112 4.19733 22.6179 3.50252 21.6357C2.75707 20.5868 2.14421 19.3706 1.66407 17.984C1.14986 16.4863 0.89209 15.0359 0.89209 13.6318C0.89209 12.0234 1.23964 10.6362 1.93576 9.47372C2.48286 8.53997 3.21069 7.8034 4.12163 7.26269C5.03255 6.72196 6.01683 6.4464 7.0768 6.42879C7.65678 6.42879 8.41734 6.60818 9.3625 6.96077C10.305 7.31454 10.9102 7.49393 11.1755 7.49393C11.3738 7.49393 12.0461 7.28416 13.1858 6.86595C14.2636 6.47812 15.1731 6.3175 15.9183 6.38078C17.9375 6.54374 19.4545 7.33971 20.4634 8.77375C18.6575 9.86794 17.7642 11.4005 17.7819 13.3665C17.7982 14.8978 18.3538 16.1722 19.4456 17.184C19.9404 17.6536 20.493 18.0166 21.1078 18.2744C20.9745 18.661 20.8337 19.0314 20.6841 19.3869V19.3869ZM16.0531 1.16374C16.0531 2.364 15.6146 3.4847 14.7406 4.52201C13.6858 5.75516 12.41 6.46772 11.0265 6.35529C11.0079 6.20439 10.9986 6.0525 10.9986 5.90047C10.9986 4.74822 11.5002 3.51506 12.391 2.50681C12.8357 1.9963 13.4014 1.57183 14.0873 1.23322C14.7717 0.899659 15.4191 0.715191 16.0279 0.683594C16.0457 0.844046 16.0531 1.00452 16.0531 1.16372V1.16374Z" fill="black"/>
</svg>
