<svg width="25" height="25" viewBox="0 0 25 25" fill="none" xmlns="http://www.w3.org/2000/svg">
<path d="M24.4287 12.6836C24.4287 6.05617 19.0561 0.683594 12.4287 0.683594C5.80129 0.683594 0.428711 6.05617 0.428711 12.6836C0.428711 18.6731 4.81693 23.6376 10.5537 24.5378V16.1523H7.50684V12.6836H10.5537V10.0399C10.5537 7.03234 12.3452 5.3711 15.0863 5.3711C16.3992 5.3711 17.7725 5.60547 17.7725 5.60547V8.55859H16.2593C14.7686 8.55859 14.3037 9.48361 14.3037 10.4326V12.6836H17.6318L17.0998 16.1523H14.3037V24.5378C20.0405 23.6376 24.4287 18.6731 24.4287 12.6836Z" fill="#1877F2"/>
<path d="M17.0998 16.1523L17.6318 12.6836H14.3037V10.4326C14.3037 9.4836 14.7686 8.55859 16.2593 8.55859H17.7725V5.60546C17.7725 5.60546 16.3992 5.37109 15.0863 5.37109C12.3452 5.37109 10.5537 7.03233 10.5537 10.0398V12.6836H7.50684V16.1523H10.5537V24.5378C11.174 24.635 11.8009 24.6838 12.4287 24.6836C13.0666 24.6836 13.6928 24.6337 14.3037 24.5378V16.1523H17.0998Z" fill="white"/>
</svg>
