<svg width="24" height="24" viewBox="0 0 24 24" fill="none" xmlns="http://www.w3.org/2000/svg">
<path d="M23.5649 12.4852C23.5659 11.6961 23.4992 10.9085 23.3655 10.1309H12.4463V14.5902H18.7003C18.5724 15.3024 18.3015 15.9814 17.904 16.5861C17.5066 17.1908 16.9908 17.7088 16.3878 18.1088V21.0035H20.1203C22.3058 18.9885 23.5649 16.0086 23.5649 12.4852Z" fill="#4285F4"/>
<path d="M12.4462 23.8001C15.5708 23.8001 18.2017 22.7741 20.1202 21.0051L16.3878 18.1105C15.3489 18.8148 14.0109 19.2169 12.4462 19.2169C9.42613 19.2169 6.86276 17.181 5.94613 14.4375H2.10107V17.4206C3.06478 19.3383 4.54251 20.9503 6.36929 22.0768C8.19608 23.2034 10.3 23.8 12.4462 23.8001Z" fill="#34A853"/>
<path d="M5.94613 14.4386C5.46154 13.0009 5.46154 11.4441 5.94613 10.0065V7.02344H2.10108C1.29038 8.63664 0.868164 10.4171 0.868164 12.2225C0.868164 14.028 1.29038 15.8084 2.10108 17.4216L5.94613 14.4386Z" fill="#FBBC04"/>
<path d="M12.4462 5.22652C14.0974 5.19955 15.6929 5.82343 16.8879 6.96331L20.1926 3.65859C18.0971 1.69036 15.3209 0.609761 12.4462 0.643338C10.3 0.643436 8.19608 1.24004 6.36929 2.36656C4.54251 3.49307 3.06478 5.10515 2.10107 7.02281L5.94613 10.0059C6.86276 7.26242 9.42613 5.22652 12.4462 5.22652Z" fill="#EA4335"/>
</svg>
